<?xml version="1.0" encoding="UTF-8"?><svg id="Layer_2" xmlns="http://www.w3.org/2000/svg" viewBox="0 0 549.95 281.45"><g id="Logo"><path id="Border" d="M236.27,266.07L11.96,150.5c-7.94-4.09-7.94-15.45,0-19.54L236.27,15.38c24.29-12.51,53.12-12.51,77.41,0l224.31,115.57c7.94,4.09,7.94,15.45,0,19.54l-224.31,115.57c-24.29,12.51-53.12,12.51-77.41,0Z" style="fill:none; stroke:#000; stroke-miterlimit:10; stroke-width:12px;"/><g id="Owl"><g><g><path d="M210.34,129.98c-.26,1.81-.39,3.66-.39,5.54,0,9.5,3.4,18.21,9.06,24.98,.6,.72,1.23,1.42,1.89,2.1,1.43,1.49,2.97,2.86,4.63,4.1,4.49,3.38,9.74,5.81,15.44,7,.62,.13,1.24,.24,1.86,.34,.31,.05,.62,.1,.94,.14,.94,.12,1.89,.22,2.86,.27,.23,.02,.46,.03,.7,.04,.54,.02,1.08,.03,1.62,.03,3.05,0,6.01-.35,8.86-1.01h0c2.21-.51,4.34-1.22,6.39-2.08" style="fill:none; stroke:#000; stroke-miterlimit:10;"/><path d="M270.08,168.31c.43-.28,.86-.57,1.28-.87,.22-.15,.43-.3,.64-.46,.39-.28,.77-.57,1.14-.87,.29-.23,.57-.46,.85-.7,.08-.05,.16-.12,.24-.21,.25-.19,.5-.41,.75-.65" style="fill:none; stroke:#000; stroke-miterlimit:10;"/><path d="M230.1,162.94c-.34-.22-.67-.46-1-.7" style="fill:none; stroke:#000; stroke-miterlimit:10;"/><path d="M218.78,121.09c-.03,.06-.07,.13-.09,.19" style="fill:none; stroke:#000; stroke-miterlimit:10;"/><path d="M221.54,116.44s-.05,.05-.06,.08c0,.01-.02,.02-.02,.04l-.02,.02" style="fill:none; stroke:#000; stroke-miterlimit:10;"/><path d="M221.93,115.9c.17-.25,.36-.5,.57-.74" style="fill:none; stroke:#000; stroke-miterlimit:10;"/><path d="M228.67,109.12v-.02c.05-.03,.09-.06,.13-.08" style="fill:none; stroke:#000; stroke-miterlimit:10;"/><path d="M241.71,103.22h.01s.03,0,.04,0" style="fill:none; stroke:#000; stroke-miterlimit:10;"/><path d="M265.22,107.09c-.23-.15-.47-.29-.71-.41" style="fill:none; stroke:#000; stroke-miterlimit:10;"/><path d="M273.31,113.81c.22,.25,.44,.5,.64,.76" style="fill:none; stroke:#000; stroke-miterlimit:10;"/><path d="M218.42,121.85s-.04,.07-.04,.11c.03-.07,.06-.14,.09-.21-.02,.03-.03,.06-.05,.1Zm3.06-5.33s-.02,.02-.02,.04c.03-.04,.05-.08,.08-.12-.03,.03-.05,.05-.06,.08Zm7.2-7.42v.02s.08-.07,.12-.1c-.04,.02-.08,.05-.12,.08Zm20.87-6.56c-.36-.01-.73-.02-1.09-.02,.43,0,.87,.01,1.3,.03-.07-.01-.14-.01-.21-.01Zm1.11,.05h-.13s.1,0,.16,.01c-.01-.01-.02-.01-.03-.01Zm3,.34c-.12-.02-.25-.04-.38-.05,.3,.04,.59,.09,.88,.14-.16-.04-.33-.07-.5-.09Zm16.87,8.05c-.09-.08-.17-.16-.26-.22,0,0,.01,0,.01,0,.09,.08,.19,.17,.28,.25-.01-.02-.02-.03-.03-.04Z" style="fill:none; stroke:#000; stroke-miterlimit:10;"/><path d="M249.79,183.98c-87.54,28.78-117.67-5.59-117.67-5.59,0,0,37.2,1.65,86.43-9.97-.57-.6-1.12-1.22-1.65-1.85-1.25-1.5-2.4-3.1-3.41-4.78C62.33,196.38,52.02,126.79,52.02,126.79c0,0,68.3,24.6,157.53,3.38,.26-.06,.53-.13,.79-.19-.26,1.81-.39,3.66-.39,5.54,0,9.5,3.4,18.21,9.06,24.98,.6,.72,1.23,1.42,1.89,2.1,.03,.05,.07,.09,.1,.13,.22,.25,.43,.5,.66,.75,.24,.28,.49,.55,.75,.82,.31,.32,.62,.64,.94,.95,0,0,0,.01,0,.01,.2,.21,.43,.42,.66,.62,.21,.2,.41,.39,.64,.57,.14,.13,.28,.25,.42,.36,.15-.03,.3-.07,.45-.11,4.49,3.38,9.74,5.81,15.44,7l8.82,10.28Z" style="stroke:#000; stroke-miterlimit:10;"/><path d="M225.53,166.7c-1.66-1.24-3.2-2.61-4.63-4.1" style="fill:none; stroke:#000; stroke-miterlimit:10;"/><path d="M273.99,165.41c-.28,.24-.56,.47-.85,.7" style="fill:none; stroke:#000; stroke-miterlimit:10;"/><path d="M241.71,103.22h.01s.03,0,.04,0" style="fill:none; stroke:#000; stroke-miterlimit:10;"/><path d="M222.5,115.16c-.21,.24-.4,.49-.57,.74-.13,.16-.24,.32-.35,.49" style="fill:none; stroke:#000; stroke-miterlimit:10;"/><path d="M218.47,121.75s-.03,.06-.05,.1-.03,.07-.04,.11" style="fill:none; stroke:#000; stroke-miterlimit:10;"/><path d="M230.1,162.94c-.34-.22-.67-.46-1-.7" style="fill:none; stroke:#000; stroke-miterlimit:10;"/><path d="M248.46,102.52c.36,0,.73,.01,1.09,.02,.07,0,.14,0,.21,.01" style="fill:none; stroke:#000; stroke-miterlimit:10;"/><path d="M250.89,102.61c-.07-.01-.15-.01-.23-.02h-.13" style="fill:none; stroke:#000; stroke-miterlimit:10;"/><path d="M253.2,102.86c.16,.02,.31,.04,.46,.07,.17,.02,.34,.05,.5,.09,.21,.03,.41,.06,.61,.11" style="fill:none; stroke:#000; stroke-miterlimit:10;"/><path d="M270.28,110.77c.09,.06,.17,.13,.25,.21,.17,.15,.34,.31,.51,.48" style="fill:none; stroke:#000; stroke-miterlimit:10;"/><path d="M221.48,116.52s-.02,.02-.02,.04c.03-.04,.05-.08,.08-.12-.03,.03-.05,.05-.06,.08Z" style="fill:none; stroke:#000; stroke-miterlimit:10;"/><path d="M275.72,116.92c-.16-.24-.33-.48-.5-.71-.12-.18-.25-.35-.38-.52-.06-.08-.12-.16-.18-.23-.23-.3-.46-.6-.71-.89-.21-.26-.42-.51-.64-.76-.27-.31-.54-.62-.83-.92-.11-.12-.23-.24-.35-.36-.12-.13-.24-.25-.36-.37-.24-.24-.48-.47-.73-.7-.16-.15-.32-.3-.48-.44-.09-.08-.19-.17-.28-.25,0,0-.01,0-.01,0t-.02-.02s-.03-.04-.05-.05c-.33-.29-.66-.57-1-.84-.1-.08-.19-.16-.29-.24-.32-.25-.65-.5-.98-.74-.15-.11-.3-.22-.45-.32-.25-.18-.5-.35-.75-.51-.3-.2-.6-.39-.9-.58-.2-.13-.41-.26-.61-.37-.24-.15-.47-.28-.71-.41-.3-.17-.6-.33-.9-.48-.32-.17-.65-.33-.99-.49-.18-.09-.36-.17-.54-.25-.18-.09-.36-.17-.54-.24-.32-.14-.64-.27-.96-.4-.43-.18-.87-.34-1.31-.48-.24-.09-.48-.17-.72-.24-.11-.05-.22-.08-.33-.11-.07-.02-.14-.05-.21-.06-.72-.22-1.44-.42-2.18-.58-.14-.03-.28-.07-.42-.09-.21-.05-.42-.1-.64-.13-.2-.04-.41-.08-.61-.11-.29-.05-.58-.1-.88-.14-.02-.01-.05-.02-.08-.02-.19-.03-.37-.05-.56-.07-.06-.02-.12-.02-.18-.02-.09-.02-.18-.03-.27-.04-.35-.04-.7-.07-1.05-.1-.09-.01-.17-.02-.25-.02-.07-.01-.14-.01-.2-.01-.06-.01-.11-.01-.16-.01-.04,0-.07,0-.1,0-.22-.02-.45-.03-.67-.03-.43-.02-.87-.03-1.3-.03s-.83,.01-1.25,.03c-.11,0-.22,0-.33,.01-.19,.01-.37,.02-.56,.04-.41,.03-.81,.06-1.21,.1h0s-.02-.01-.03,0c-.08,0-.17,0-.25,.03-.02-.01-.03-.01-.05,0-.01-.01-.01,0-.02,.01h-.01c-.26,.02-.52,.05-.77,.09-.08,0-.15,0-.22,.03-.15,.01-.3,.04-.44,.07-.3,.04-.6,.09-.9,.15-.14,.02-.27,.04-.41,.08-.04,0-.09,.01-.13,.03h-.01s0-.01-.02,0h0s-.01,0-.02,.01c-.01-.01-.02-.01-.03,0,0,0-.02,0-.03,0-.02,0-.03,0-.05,.01-.02,0-.03,0-.05,.01t-.02,0h-.01s-.03,.01-.04,.02c-.03-.01-.07,0-.1,.02-.17,.03-.34,.07-.51,.11-.43,.1-.86,.21-1.29,.32-.43,.12-.85,.25-1.27,.38-.07,0-.13,.04-.19,.06-.77,.25-1.53,.53-2.28,.84-.4,.16-.81,.33-1.2,.52-.39,.18-.78,.37-1.17,.56-.39,.2-.77,.4-1.15,.61-.22,.12-.44,.25-.66,.38-.2,.11-.4,.23-.59,.36-.29,.17-.57,.35-.85,.54-.44,.28-.86,.57-1.27,.88-.09,.06-.18,.12-.26,.19-.04,.03-.09,.07-.13,.1h0c-.19,.14-.38,.29-.56,.44-.22,.16-.43,.33-.64,.51-.2,.16-.39,.32-.58,.49-.17,.14-.33,.28-.49,.43-.5,.45-.99,.92-1.46,1.4-.2,.19-.39,.39-.57,.59-.1,.1-.19,.21-.28,.31-.21,.22-.41,.45-.61,.68-.34,.39-.67,.79-.97,1.19-.2,.24-.39,.49-.57,.74-.12,.16-.24,.32-.35,.49-.02,.02-.04,.03-.04,.05-.03,.03-.05,.05-.06,.08,0,.01-.02,.02-.02,.04h0l-.02,.02s-.01,.02-.01,.02c-.03,.03-.05,.06-.07,.09,0,.01,0,.02-.02,.03-.03,.03-.05,.07-.07,.11-.1,.14-.2,.28-.29,.43-.21,.3-.41,.61-.6,.92-.24,.39-.48,.79-.7,1.19-.21,.37-.41,.74-.6,1.12-.04,.08-.08,.15-.12,.23-.06,.12-.12,.24-.18,.37-.03,.06-.06,.13-.09,.19-.08,.16-.15,.31-.22,.47-.03,.07-.06,.14-.09,.21h-.01s-.02,.05-.03,.07c-.1,.22-.2,.44-.28,.66-.03,.06-.06,.11-.07,.17-.16,.37-.31,.75-.45,1.13-.12,.31-.23,.62-.33,.94-.07,.18-.13,.36-.18,.54-.08,.24-.15,.49-.22,.73-.02,.04-.03,.08-.04,.12-.01,.02-.02,.04-.02,.07-.02,.05-.04,.1-.04,.16-.11,.38-.21,.75-.3,1.13-.01,.01-.02,.03-.01,.05-.07,.26-.13,.52-.19,.78-.49,2.26-.75,4.6-.75,7.01,0,.36,.01,.71,.02,1.06,.01,.35,.02,.7,.05,1.04,0,.26,.03,.52,.06,.77,.03,.48,.08,.95,.15,1.41,.02,.2,.05,.41,.08,.61,.09,.63,.21,1.26,.34,1.88,.05,.27,.11,.55,.18,.82,.1,.41,.2,.81,.31,1.21,.11,.4,.23,.79,.35,1.18,.07,.22,.14,.44,.22,.66,.13,.4,.27,.79,.42,1.18,.01,.03,.02,.06,.03,.08,.02,.06,.05,.12,.07,.17,.13,.33,.26,.67,.41,.99,.18,.42,.37,.83,.57,1.24,.04,.11,.1,.22,.15,.32,.14,.29,.29,.59,.45,.87,.17,.33,.36,.66,.54,.98,.19,.33,.38,.64,.58,.96,.31,.51,.65,1.02,1,1.5,.22,.32,.45,.64,.69,.95,.19,.25,.37,.49,.57,.73,.13,.18,.27,.36,.42,.53,.21,.25,.43,.5,.65,.75,.24,.28,.49,.55,.75,.82,.31,.32,.62,.64,.94,.95,0,0,0,.01,.01,.01,.21,.21,.43,.42,.66,.62,.21,.2,.42,.39,.64,.57,.2,.19,.41,.36,.62,.53,.26,.22,.52,.43,.79,.64,.3,.24,.61,.47,.92,.69,.33,.24,.66,.47,1,.7,0,.01,.03,.02,.05,.04,.25,.16,.49,.32,.74,.48,.81,.51,1.65,.99,2.51,1.43,4.52,2.32,9.63,3.63,15.06,3.63,2.34,0,4.61-.24,6.81-.71h.01c2.24-.47,4.39-1.17,6.44-2.07,2.06-.9,4-2.01,5.81-3.29,3.45-2.44,6.4-5.53,8.69-9.09v-35.69c-.16-.25-.33-.5-.5-.75Zm-7.77,19.79c-.61,9.96-8.88,17.86-19,17.86-3.04,0-5.92-.71-8.48-1.99-6.25-3.11-10.56-9.59-10.56-17.06,0-10.53,8.52-19.05,19.04-19.05s19.05,8.52,19.05,19.05c0,.41-.02,.8-.05,1.19Z" style="stroke:#000; stroke-miterlimit:10;"/><path d="M248.46,102.52c.36,0,.73,.01,1.09,.02,.07,0,.14,0,.21,.01" style="fill:none; stroke:#000; stroke-miterlimit:10;"/><path d="M250.53,102.59h.13s.02,0,.03,0" style="fill:none; stroke:#000; stroke-miterlimit:10;"/><path d="M253.28,102.88c.13,0,.26,.03,.38,.05,.17,.02,.34,.05,.5,.09,.21,.03,.41,.06,.61,.11" style="fill:none; stroke:#000; stroke-miterlimit:10;"/><path d="M263.61,106.2c-.33-.17-.66-.34-.99-.49" style="fill:none; stroke:#000; stroke-miterlimit:10;"/><path d="M266.73,108.04c-.29-.2-.6-.4-.9-.58" style="fill:none; stroke:#000; stroke-miterlimit:10;"/><path d="M270.56,111.02s-.02-.03-.03-.04c-.09-.08-.17-.16-.26-.22" style="fill:none; stroke:#000; stroke-miterlimit:10;"/><path d="M270.2,110.69s.03,.03,.05,.05" style="fill:none; stroke:#000; stroke-miterlimit:10;"/><path d="M273.95,114.57c-.2-.26-.42-.51-.64-.76" style="fill:none; stroke:#000; stroke-miterlimit:10;"/><path d="M216.71,126.55c-.12,.37-.22,.75-.3,1.13" style="fill:none; stroke:#000; stroke-miterlimit:10;"/><path d="M217.03,125.47c-.08,.24-.16,.48-.22,.73" style="fill:none; stroke:#000; stroke-miterlimit:10;"/><path d="M217.99,122.86c-.17,.37-.31,.75-.45,1.13" style="fill:none; stroke:#000; stroke-miterlimit:10;"/><path d="M218.38,121.96s.02-.07,.04-.11,.03-.07,.05-.1" style="fill:none; stroke:#000; stroke-miterlimit:10;"/><path d="M221.27,116.83c-.11,.14-.2,.28-.29,.43" style="fill:none; stroke:#000; stroke-miterlimit:10;"/><path d="M221.46,116.56s.01-.03,.02-.04c.01-.03,.03-.05,.06-.08" style="fill:none; stroke:#000; stroke-miterlimit:10;"/><path d="M228.67,109.12v-.02c.05-.03,.09-.06,.13-.08" style="fill:none; stroke:#000; stroke-miterlimit:10;"/><path d="M234.75,105.5c-.4,.17-.79,.36-1.17,.56-.39,.19-.77,.4-1.15,.61" style="fill:none; stroke:#000; stroke-miterlimit:10;"/><path d="M238.42,104.08c.42-.14,.84-.27,1.27-.38,.43-.12,.86-.23,1.29-.32,.17-.05,.34-.09,.51-.11" style="fill:none; stroke:#000; stroke-miterlimit:10;"/><path d="M241.63,103.24s-.03-.01-.04,.01" style="fill:none; stroke:#000; stroke-miterlimit:10;"/><path d="M246.32,102.6c-.41,.01-.81,.05-1.21,.1" style="fill:none; stroke:#000; stroke-miterlimit:10;"/><path d="M248.95,116.47c-10.52,0-19.04,8.52-19.04,19.05,0,7.47,4.31,13.95,10.56,17.06,2.56,1.28,5.44,1.99,8.48,1.99,10.12,0,18.39-7.9,19-17.86,.03-.39,.05-.78,.05-1.19,0-10.53-8.52-19.05-19.05-19.05Zm13.07,19.87c-.42,6.85-6.11,12.28-13.07,12.28-2.09,0-4.07-.49-5.83-1.37-4.3-2.14-7.26-6.59-7.26-11.73,0-7.24,5.86-13.1,13.09-13.1s13.1,5.86,13.1,13.1c0,.28-.01,.55-.03,.82Z" style="fill:none; stroke:#000; stroke-miterlimit:10;"/><path d="M262.05,135.52c0,.28-.01,.55-.03,.82-.42,6.85-6.11,12.28-13.07,12.28-2.09,0-4.07-.49-5.83-1.37-4.3-2.14-7.26-6.59-7.26-11.73,0-7.24,5.86-13.1,13.09-13.1s13.1,5.86,13.1,13.1Z" style="fill:#f4000d; stroke:#000; stroke-miterlimit:10;"/><path d="M276.17,214.64h0s0,.03-.02,0c-5.6-8.42-26.36-30.67-26.36-30.67l-8.82-10.28c.62,.13,1.24,.24,1.86,.34,.31,.05,.62,.1,.94,.14,.94,.12,1.89,.22,2.86,.27,.23,.02,.46,.03,.7,.04,.54,.02,1.08,.03,1.62,.03,3.05,0,6.01-.35,8.86-1.01h.01s16,30.12,18.35,41.13Z" style="stroke:#000; stroke-miterlimit:10;"/><path d="M238.23,104.14c-.77,.25-1.53,.53-2.28,.84-.4,.16-.81,.33-1.2,.52-.39,.18-.78,.37-1.17,.56-.39,.2-.77,.4-1.15,.61-.22,.12-.44,.25-.66,.38-.2,.11-.4,.23-.59,.36-.29,.17-.57,.35-.85,.54-.44,.28-.86,.57-1.27,.88-.09,.06-.18,.12-.26,.19-.04,.03-.09,.07-.13,.1h0c-.19,.14-.38,.29-.56,.44-.22,.16-.43,.33-.64,.51-.2,.16-.39,.32-.58,.49-.17,.14-.33,.28-.49,.43-.5,.45-.99,.92-1.46,1.4-.2,.19-.39,.39-.57,.59-.1,.1-.19,.21-.28,.31-5.45-11.73-3.2-15.98-3.2-15.98,0,0,1.56,4.23,17.35,6.83Z" style="stroke:#000; stroke-miterlimit:10;"/></g><g><path d="M278.49,114.49c.2-.26,.42-.51,.64-.76" style="fill:none; stroke:#000; stroke-miterlimit:10;"/><path d="M287.93,106.6c-.24,.12-.48,.26-.71,.41" style="fill:none; stroke:#000; stroke-miterlimit:10;"/><path d="M315.36,104.47s-.06-.03-.09-.04c-.35-.13-.7-.25-1.06-.36" style="fill:none; stroke:#000; stroke-miterlimit:10;"/><path d="M330.51,115.82c-.17-.25-.36-.5-.57-.74" style="fill:none; stroke:#000; stroke-miterlimit:10;"/><path d="M333.75,121.2c-.02-.06-.06-.13-.09-.19" style="fill:none; stroke:#000; stroke-miterlimit:10;"/><path d="M323.34,162.16c-.33,.24-.66,.48-1,.7" style="fill:none; stroke:#000; stroke-miterlimit:10;"/><path d="M288.23,171.35l-12.01,27.59-12.01-27.51c2.05-.88,4.02-1.92,5.87-3.12l6.14,14.13,6.14-14.21c1.85,1.2,3.82,2.24,5.87,3.12Z" style="stroke:#000; stroke-miterlimit:10;"/><path d="M277.46,164.47c.25,.24,.5,.46,.75,.65,.08,.09,.16,.16,.24,.21,.28,.24,.56,.47,.85,.7,.37,.3,.75,.59,1.14,.87,.21,.16,.42,.31,.64,.46,.42,.3,.85,.59,1.28,.87" style="fill:none; stroke:#000; stroke-miterlimit:10;"/><path d="M288.23,171.35c2.05,.86,4.18,1.57,6.39,2.08h0c2.85,.66,5.81,1.01,8.86,1.01,.54,0,1.08-.01,1.62-.03,.24-.01,.47-.02,.7-.04,.97-.05,1.92-.15,2.86-.27,.32-.04,.63-.09,.94-.14,.62-.1,1.24-.21,1.86-.34,5.7-1.19,10.95-3.62,15.44-7,1.66-1.24,3.2-2.61,4.63-4.1,.66-.68,1.29-1.38,1.89-2.1,5.66-6.77,9.06-15.48,9.06-24.98,0-1.88-.13-3.73-.39-5.54" style="fill:none; stroke:#000; stroke-miterlimit:10;"/><path d="M281.91,110.9s-.01,0-.01,.01,0,.01-.01,.01c0,0-.01,.01-.01,.02,.02-.02,.04-.04,.07-.07-.01,.01-.03,.02-.04,.03Zm16.87-8.05c-.17,.02-.34,.05-.5,.09,.29-.05,.58-.1,.88-.14-.13,.01-.26,.03-.38,.05Zm2.99-.34s-.01,0-.02,0c.03,0,.06,0,.08,0h-.06Zm1.12-.05c-.07,0-.14,0-.21,.01,.43-.02,.87-.03,1.3-.03-.36,0-.73,.01-1.09,.02Zm12.38,1.97c-.35-.13-.69-.25-1.04-.37h0c-.06-.02-.13-.04-.2-.06,.06,.02,.12,.04,.18,.07h.01c.39,.13,.77,.26,1.15,.4,.38,.13,.76,.28,1.13,.43-.4-.17-.81-.33-1.22-.47Zm18.75,17.34s-.03-.07-.05-.1c.03,.07,.06,.14,.09,.21,0-.04-.02-.07-.04-.11Z" style="fill:none; stroke:#000; stroke-miterlimit:10;"/><path d="M335.54,166.49c-.53,.63-1.08,1.25-1.65,1.85,49.23,11.62,86.43,9.97,86.43,9.97,0,0-30.13,34.37-117.67,5.59l8.82-10.28c5.7-1.19,10.95-3.62,15.44-7,.15,.04,.3,.08,.45,.11,.14-.11,.28-.23,.42-.36,.23-.18,.43-.37,.64-.57,.23-.2,.46-.41,.66-.62,.01,0,.01-.01,.01-.01,.32-.31,.63-.63,.94-.95,.26-.27,.51-.54,.75-.82,.23-.25,.44-.5,.66-.75,.03-.04,.07-.08,.1-.13,.66-.68,1.29-1.38,1.89-2.1,5.66-6.77,9.06-15.48,9.06-24.98,0-1.88-.13-3.73-.39-5.54,.26,.06,.53,.13,.79,.19,89.23,21.22,157.53-3.38,157.53-3.38,0,0-10.31,69.59-161.47,35-1.01,1.68-2.16,3.28-3.41,4.78Z" style="stroke:#000; stroke-miterlimit:10;"/><path d="M331.54,162.52c-1.43,1.49-2.97,2.86-4.63,4.1" style="fill:none; stroke:#000; stroke-miterlimit:10;"/><path d="M279.3,166.03c-.29-.23-.57-.46-.85-.7" style="fill:none; stroke:#000; stroke-miterlimit:10;"/><path d="M323.34,162.16c-.33,.24-.66,.48-1,.7" style="fill:none; stroke:#000; stroke-miterlimit:10;"/><path d="M333.97,121.67s.03,.06,.05,.1,.04,.07,.04,.11" style="fill:none; stroke:#000; stroke-miterlimit:10;"/><path d="M330.51,115.82c-.17-.25-.36-.5-.57-.74" style="fill:none; stroke:#000; stroke-miterlimit:10;"/><path d="M302.68,102.47c.07,0,.14,0,.21,0,.36-.01,.73-.02,1.09-.02" style="fill:none; stroke:#000; stroke-miterlimit:10;"/><path d="M301.55,102.53c.07-.01,.14-.01,.22-.02h.06" style="fill:none; stroke:#000; stroke-miterlimit:10;"/><path d="M299.24,102.78c-.16,.02-.31,.04-.46,.07-.17,.02-.34,.05-.5,.09-.21,.03-.41,.06-.61,.11" style="fill:none; stroke:#000; stroke-miterlimit:10;"/><path d="M281.4,111.38c.16-.17,.32-.31,.49-.46t.01-.01s.01-.01,.01-.01c.01-.01,.03-.02,.04-.03" style="fill:none; stroke:#000; stroke-miterlimit:10;"/><path d="M336.23,128.43c-.06-.26-.12-.52-.19-.78,.01-.02,0-.04,0-.05-.09-.38-.19-.75-.3-1.13,.01-.02,0-.04,0-.06,0-.03-.01-.05-.02-.07,0,0,0-.02-.01-.03,0-.03-.01-.05-.02-.07,0-.04-.02-.08-.04-.12-.07-.24-.14-.49-.22-.73-.05-.18-.11-.36-.18-.54-.1-.32-.21-.63-.33-.94-.14-.38-.29-.76-.45-1.13-.01-.06-.04-.11-.07-.17-.08-.22-.18-.44-.28-.66-.01-.02-.02-.04-.03-.06h-.01c-.03-.08-.06-.15-.09-.22-.07-.16-.14-.31-.22-.47-.03-.06-.06-.13-.09-.19-.06-.13-.12-.25-.18-.37-.04-.08-.08-.15-.12-.23-.19-.38-.39-.75-.6-1.12-.22-.4-.46-.8-.7-1.19-.48-.78-1-1.55-1.55-2.28-.18-.25-.37-.5-.57-.74-.3-.4-.63-.8-.97-1.19-.26-.31-.53-.61-.81-.9-.02-.03-.06-.07-.09-.1h-.01c-.18-.21-.36-.39-.55-.58-.47-.48-.96-.95-1.46-1.4-.16-.15-.32-.29-.49-.43-.45-.4-.92-.78-1.4-1.14-.26-.21-.51-.4-.78-.59-.41-.31-.83-.6-1.27-.88-.28-.19-.56-.37-.85-.54-.19-.13-.39-.25-.59-.36-.22-.13-.44-.26-.66-.38-.38-.21-.76-.41-1.15-.61-.39-.19-.78-.38-1.17-.56-.39-.19-.8-.36-1.2-.52-.37-.15-.75-.3-1.13-.43-.38-.14-.76-.27-1.15-.4h-.01c-.06-.03-.12-.05-.18-.07-.42-.13-.84-.26-1.27-.38-.43-.11-.86-.22-1.29-.32-.17-.04-.34-.08-.51-.11-.04-.02-.08-.03-.12-.03-.06-.02-.13-.04-.19-.04t-.02,0s-.01-.01-.02-.01t-.02,0s-.09-.03-.14-.03c-.14-.04-.27-.06-.41-.08-.3-.06-.6-.11-.9-.15-.14-.03-.29-.06-.44-.07-.05-.01-.11-.02-.17-.02-.27-.03-.54-.07-.81-.1t-.02,0s-.03-.02-.04-.01c-.09-.02-.19-.03-.28-.03-.01-.01-.02-.01-.03,0h-.01c-.4-.04-.8-.07-1.21-.1-.19-.02-.37-.03-.56-.04-.11-.01-.22-.01-.33-.01-.42-.02-.83-.03-1.25-.03s-.87,.01-1.3,.03c-.22,0-.45,.01-.67,.03-.03,0-.06,0-.1,.01h-.08s-.05,0-.08,0c-.06,0-.13,0-.2,.01-.08,0-.16,.01-.25,.02-.18,.02-.37,.03-.55,.05-.12,.01-.24,.02-.36,.04-.05,0-.09,0-.14,0h-.02c-.08,.01-.17,.02-.25,.04-.03,0-.06,0-.09,.01-.03,0-.06,0-.09,0-.19,.02-.37,.04-.56,.07-.03,0-.06,.01-.08,.02-.3,.04-.59,.09-.88,.14-.2,.03-.41,.07-.61,.11-.22,.03-.43,.08-.64,.13-.07,.01-.14,.02-.21,.04-.07,.02-.14,.04-.21,.05-.45,.1-.89,.21-1.33,.33-.28,.08-.57,.16-.85,.25-.07,.01-.14,.04-.21,.06-.11,.03-.22,.06-.33,.11-.24,.07-.48,.15-.72,.24-.17,.06-.35,.11-.52,.18-.15,.05-.31,.11-.46,.17-.11,.04-.22,.08-.33,.13-.32,.13-.64,.26-.96,.4-.18,.07-.36,.15-.54,.24-.18,.08-.36,.16-.54,.25-.34,.16-.67,.32-.99,.49-.3,.15-.6,.31-.9,.48-.24,.13-.47,.26-.71,.41-.2,.11-.41,.24-.61,.37-.02,.01-.05,.03-.07,.05-.28,.17-.56,.35-.83,.53-.01,.01-.03,.02-.04,.02-.24,.16-.47,.32-.71,.49-.15,.1-.3,.21-.45,.32-.33,.24-.66,.49-.98,.74-.02,.01-.03,.03-.05,.05-.08,.06-.16,.12-.24,.19-.34,.27-.67,.55-1,.84-.02,.01-.03,.03-.05,.05-.01,.01-.02,.02-.03,.03-.07,.05-.14,.11-.21,.18-.03,.03-.05,.05-.07,.07-.16,.14-.32,.29-.48,.44-.25,.23-.49,.46-.73,.7-.12,.12-.24,.24-.36,.37-.12,.12-.24,.24-.35,.36-.29,.3-.56,.61-.83,.92-.22,.25-.43,.5-.64,.76-.25,.29-.48,.59-.71,.89-.06,.07-.12,.15-.18,.23-.13,.17-.26,.34-.38,.52-.17,.23-.34,.47-.5,.71-.17,.25-.34,.5-.5,.75v35.69c2.29,3.56,5.24,6.65,8.69,9.09,1.81,1.28,3.75,2.39,5.81,3.29,2.05,.9,4.2,1.6,6.44,2.07h0c2.2,.47,4.47,.71,6.81,.71,5.43,0,10.54-1.31,15.06-3.63,.86-.44,1.7-.92,2.51-1.43,.25-.16,.49-.32,.74-.48,.02-.02,.04-.03,.05-.04,.34-.23,.67-.46,1-.7,.31-.22,.62-.45,.92-.69,.27-.21,.53-.42,.79-.64,.21-.17,.42-.34,.62-.53,.22-.18,.43-.37,.64-.57,.23-.2,.45-.41,.66-.62,0,0,0-.01,0-.01,.32-.31,.63-.63,.94-.95,.26-.27,.51-.54,.75-.82,.22-.25,.44-.5,.65-.75,.15-.17,.29-.35,.42-.53,.2-.24,.38-.48,.57-.73,.24-.31,.47-.63,.69-.95,.35-.48,.69-.99,1-1.5,.2-.32,.39-.63,.58-.96,.18-.32,.37-.65,.54-.98,.16-.28,.31-.58,.45-.87,.05-.1,.11-.21,.15-.32,.2-.41,.39-.82,.57-1.24,.15-.32,.28-.66,.41-.99,.02-.05,.05-.11,.07-.17,.01-.02,.02-.05,.03-.08,.15-.39,.29-.78,.42-1.18,.08-.22,.15-.44,.22-.66,.12-.39,.24-.78,.35-1.18,.11-.4,.21-.8,.31-1.21,.07-.27,.13-.55,.18-.82,.13-.62,.25-1.25,.34-1.88,.03-.2,.06-.41,.08-.61,.07-.46,.12-.93,.15-1.41,.03-.25,.05-.51,.06-.77,.03-.34,.04-.69,.05-1.04,.01-.35,.02-.7,.02-1.06,0-2.41-.26-4.75-.75-7.01Zm-13.75,8.28c-.61,9.96-8.88,17.86-19,17.86-3.04,0-5.92-.71-8.48-1.99-6.25-3.11-10.56-9.59-10.56-17.06,0-10.53,8.52-19.05,19.04-19.05s19.05,8.52,19.05,19.05c0,.41-.02,.8-.05,1.19Z" style="stroke:#000; stroke-miterlimit:10;"/><path d="M336.03,127.6c-.08-.38-.18-.76-.3-1.13" style="fill:none; stroke:#000; stroke-miterlimit:10;"/><path d="M335.63,126.12c-.06-.25-.14-.49-.22-.73" style="fill:none; stroke:#000; stroke-miterlimit:10;"/><path d="M334.9,123.91c-.14-.38-.28-.76-.45-1.13" style="fill:none; stroke:#000; stroke-miterlimit:10;"/><path d="M333.97,121.67s.03,.06,.05,.1,.04,.07,.04,.11" style="fill:none; stroke:#000; stroke-miterlimit:10;"/><path d="M324.16,109.34c-.26-.21-.52-.41-.78-.59" style="fill:none; stroke:#000; stroke-miterlimit:10;"/><path d="M320.01,106.59c-.38-.21-.76-.42-1.15-.61-.38-.2-.77-.39-1.17-.56" style="fill:none; stroke:#000; stroke-miterlimit:10;"/><path d="M316.49,104.9c-.4-.17-.81-.33-1.22-.47-.35-.13-.69-.25-1.04-.37h-.01c-.06-.02-.13-.04-.2-.06-.42-.14-.84-.27-1.27-.38-.43-.12-.86-.23-1.29-.32-.17-.05-.34-.09-.51-.11" style="fill:none; stroke:#000; stroke-miterlimit:10;"/><path d="M308.52,102.76c-.27-.05-.54-.08-.81-.1" style="fill:none; stroke:#000; stroke-miterlimit:10;"/><path d="M307.33,102.62c-.4-.05-.8-.09-1.21-.1" style="fill:none; stroke:#000; stroke-miterlimit:10;"/><path d="M303.98,102.44c-.36,0-.73,.01-1.09,.02-.07,0-.14,0-.21,0" style="fill:none; stroke:#000; stroke-miterlimit:10;"/><path d="M301.83,102.51h-.06s-.01,0-.02,0" style="fill:none; stroke:#000; stroke-miterlimit:10;"/><path d="M299.16,102.8c-.13,0-.26,.03-.38,.05-.17,.02-.34,.05-.5,.09-.21,.03-.41,.06-.61,.11" style="fill:none; stroke:#000; stroke-miterlimit:10;"/><path d="M289.82,105.63c-.33,.15-.66,.32-.99,.49" style="fill:none; stroke:#000; stroke-miterlimit:10;"/><path d="M286.54,107.43c-.28,.16-.56,.35-.83,.53" style="fill:none; stroke:#000; stroke-miterlimit:10;"/><path d="M281.88,110.94s.01-.02,.01-.02t.01-.01s.01-.01,.01-.01c.01-.01,.03-.02,.04-.03" style="fill:none; stroke:#000; stroke-miterlimit:10;"/><path d="M278.49,114.49c.2-.26,.42-.51,.64-.76" style="fill:none; stroke:#000; stroke-miterlimit:10;"/><path d="M311.47,173.62l-8.82,10.28s-20.77,22.25-26.36,30.67c0,.02-.02,.01-.02,0h0c2.35-11.02,18.35-41.14,18.35-41.14h.01c2.85,.66,5.81,1.01,8.86,1.01,.54,0,1.08-.01,1.62-.03,.24-.01,.47-.02,.7-.04,.97-.05,1.92-.15,2.86-.27,.32-.04,.63-.09,.94-.14,.62-.1,1.24-.21,1.86-.34Z" style="stroke:#000; stroke-miterlimit:10;"/><path d="M294.62,173.43s-16,30.12-18.35,41.13h0s-.04,.08-.05,.1v.08s-.04-.07-.05-.09h0c-2.35-11.02-18.35-41.14-18.35-41.14,2.21-.51,4.34-1.22,6.39-2.08l12.01,27.51,12.01-27.59c2.05,.86,4.18,1.57,6.39,2.08Z" style="fill:none; stroke:#000; stroke-miterlimit:10;"/><path d="M282.36,168.23l-6.14,14.21-6.14-14.13c.43-.28,.86-.57,1.28-.87,.22-.15,.43-.3,.64-.46,.39-.28,.77-.57,1.14-.87,.29-.22,.57-.45,.85-.7,.08-.05,.16-.12,.24-.21,.25-.19,.5-.41,.75-.65,.42-.36,.84-.75,1.24-1.15,0,0,.82,.71,1.24,1.07,.25,.24,.5,.46,.75,.65,.08,.09,.16,.16,.24,.21,.28,.25,.56,.48,.85,.7,.37,.3,.75,.59,1.14,.87,.21,.16,.42,.31,.64,.46,.42,.3,.85,.59,1.28,.87Z" style="fill:none; stroke:#000; stroke-miterlimit:10;"/><path d="M303.48,116.47c-10.52,0-19.04,8.52-19.04,19.05,0,7.47,4.31,13.95,10.56,17.06,2.56,1.28,5.44,1.99,8.48,1.99,10.12,0,18.39-7.9,19-17.86,.03-.39,.05-.78,.05-1.19,0-10.53-8.52-19.05-19.05-19.05Zm5.84,30.7c-1.76,.88-3.74,1.37-5.83,1.37-6.96,0-12.65-5.43-13.07-12.28-.02-.27-.03-.54-.03-.82,0-7.24,5.86-13.1,13.1-13.1s13.09,5.86,13.09,13.1c0,5.14-2.96,9.59-7.26,11.73Z" style="fill:none; stroke:#000; stroke-miterlimit:10;"/><path d="M316.58,135.44c0,5.14-2.96,9.59-7.26,11.73-1.76,.88-3.74,1.37-5.83,1.37-6.96,0-12.65-5.43-13.07-12.28-.02-.27-.03-.54-.03-.82,0-7.24,5.86-13.1,13.1-13.1s13.09,5.86,13.09,13.1Z" style="fill:#f4000d; stroke:#000; stroke-miterlimit:10;"/><path d="M328.07,112.89h-.01c-.18-.21-.36-.39-.55-.58-.47-.48-.96-.95-1.46-1.4-.16-.15-.32-.29-.49-.43-.45-.4-.92-.78-1.4-1.14-.26-.21-.52-.41-.78-.59-.41-.31-.83-.6-1.27-.88-.28-.19-.56-.37-.85-.54-.19-.13-.39-.25-.59-.36-.22-.13-.44-.26-.66-.38-.38-.21-.76-.41-1.15-.61-.39-.19-.78-.38-1.17-.56-.39-.19-.8-.36-1.2-.52-.37-.15-.75-.3-1.13-.43-.38-.14-.76-.27-1.15-.4h.02c15.33-2.62,16.85-6.75,16.85-6.75,0,0,2.2,4.15-3.01,15.57Z" style="stroke:#000; stroke-miterlimit:10;"/></g></g></g><text id="Text" transform="translate(128.12 121.91) rotate(-36.33)" style="fill:red; font-family:FairwaterDecoSerif-Regular, &apos;Fairwater Deco Serif&apos;; font-size:27.58px; stroke:#000; stroke-miterlimit:10;"><tspan x="0" y="0">N</tspan></text><text transform="translate(147.35 107.99) rotate(-31.67)" style="fill:red; font-family:FairwaterDecoSerif-Regular, &apos;Fairwater Deco Serif&apos;; font-size:27.58px; stroke:#000; stroke-miterlimit:10;"><tspan x="0" y="0">I</tspan></text><text transform="translate(159.8 100.16) rotate(-27.4)" style="fill:red; font-family:FairwaterDecoSerif-Regular, &apos;Fairwater Deco Serif&apos;; font-size:27.58px; stroke:#000; stroke-miterlimit:10;"><tspan x="0" y="0">T</tspan></text><text transform="translate(177.82 90.77) rotate(-22.26)" style="fill:red; font-family:FairwaterDecoSerif-Regular, &apos;Fairwater Deco Serif&apos;; font-size:27.58px; stroke:#000; stroke-miterlimit:10;"><tspan x="0" y="0">E</tspan></text><text transform="translate(197.08 82.81) rotate(-16.69)" style="fill:red; font-family:FairwaterDecoSerif-Regular, &apos;Fairwater Deco Serif&apos;; font-size:27.58px; stroke:#000; stroke-miterlimit:10;"><tspan x="0" y="0">O</tspan></text><text transform="translate(216.93 76.43) rotate(-10.05)" style="fill:red; font-family:FairwaterDecoSerif-Regular, &apos;Fairwater Deco Serif&apos;; font-size:27.58px; stroke:#000; stroke-miterlimit:10;"><tspan x="0" y="0">W</tspan></text><text transform="translate(248.2 71.21) rotate(-3.2)" style="fill:red; font-family:FairwaterDecoSerif-Regular, &apos;Fairwater Deco Serif&apos;; font-size:27.58px; stroke:#000; stroke-miterlimit:10;"><tspan x="0" y="0">L</tspan></text><text transform="translate(267.74 70.23) rotate(.7)" style="fill:red; font-family:FairwaterDecoSerif-Regular, &apos;Fairwater Deco Serif&apos;; font-size:27.58px; stroke:#000; stroke-miterlimit:10;"><tspan x="0" y="0"> </tspan></text><text transform="translate(276.1 70.27) rotate(2.9)" style="fill:red; font-family:FairwaterDecoSerif-Regular, &apos;Fairwater Deco Serif&apos;; font-size:27.58px; stroke:#000; stroke-miterlimit:10;"><tspan x="0" y="0">*</tspan></text><text transform="translate(287.17 70.84) rotate(5.45)" style="fill:red; font-family:FairwaterDecoSerif-Regular, &apos;Fairwater Deco Serif&apos;; font-size:27.58px; stroke:#000; stroke-miterlimit:10;"><tspan x="0" y="0"> </tspan></text><text transform="translate(295.92 71.45) rotate(9.4)" style="fill:red; font-family:FairwaterDecoSerif-Regular, &apos;Fairwater Deco Serif&apos;; font-size:27.58px; stroke:#000; stroke-miterlimit:10;"><tspan x="0" y="0">e</tspan></text><text transform="translate(316.67 74.89) rotate(14.8)" style="fill:red; font-family:FairwaterDecoSerif-Regular, &apos;Fairwater Deco Serif&apos;; font-size:27.58px; stroke:#000; stroke-miterlimit:10;"><tspan x="0" y="0">s</tspan></text><text transform="translate(334.86 79.62) rotate(19.72)" style="fill:red; font-family:FairwaterDecoSerif-Regular, &apos;Fairwater Deco Serif&apos;; font-size:27.58px; stroke:#000; stroke-miterlimit:10;"><tspan x="0" y="0">t</tspan></text><text transform="translate(352.66 86.14) rotate(22.94)" style="fill:red; font-family:FairwaterDecoSerif-Regular, &apos;Fairwater Deco Serif&apos;; font-size:27.58px; stroke:#000; stroke-miterlimit:10;"><tspan x="0" y="0">.</tspan></text><text transform="translate(357.98 88.35) rotate(24.51)" style="fill:red; font-family:FairwaterDecoSerif-Regular, &apos;Fairwater Deco Serif&apos;; font-size:27.58px; stroke:#000; stroke-miterlimit:10;"><tspan x="0" y="0"> </tspan></text><text transform="translate(366.08 91.92) rotate(27.66)" style="fill:red; font-family:FairwaterDecoSerif-Regular, &apos;Fairwater Deco Serif&apos;; font-size:27.58px; stroke:#000; stroke-miterlimit:10;"><tspan x="0" y="0">2</tspan></text><text transform="translate(380.75 99.55) rotate(31.96)" style="fill:red; font-family:FairwaterDecoSerif-Regular, &apos;Fairwater Deco Serif&apos;; font-size:27.58px; stroke:#000; stroke-miterlimit:10;"><tspan x="0" y="0">0</tspan></text><text transform="translate(396.74 109.58) rotate(36.13)" style="fill:red; font-family:FairwaterDecoSerif-Regular, &apos;Fairwater Deco Serif&apos;; font-size:27.58px; stroke:#000; stroke-miterlimit:10;"><tspan x="0" y="0">1</tspan></text><text transform="translate(409.12 118.5) rotate(40.24)" style="fill:red; font-family:FairwaterDecoSerif-Regular, &apos;Fairwater Deco Serif&apos;; font-size:27.58px; stroke:#000; stroke-miterlimit:10;"><tspan x="0" y="0">4</tspan></text></g></svg>